<svg xmlns="http://www.w3.org/2000/svg" width="40" height="40" fill="none"><path fill="#fff" d="M1.625 6.625h36.75v26.75H1.625z"/><path fill="#DD2E44" d="M2 7h36v2H2zm0 4h36v2H2zm0 4h36v2H2zm0 4h36v2H2zm0 4h36v2H2zm0 4h36v2H2zm0 4h36v2H2z"/><path stroke="#fff" stroke-width=".75" d="M1.625 6.625h36.75v26.75H1.625z"/><path fill="#010066" d="M2 7h18v14H2z"/><path fill="#FFCC4D" d="M10.448 17.489a3.516 3.516 0 0 1-2.435-1.046 3.48 3.48 0 0 1 0-4.886 3.516 3.516 0 0 1 2.435-1.046c.479 0 .936.098 1.352.27a4.03 4.03 0 0 0-5.222.39 3.99 3.99 0 0 0 0 5.657 4.03 4.03 0 0 0 5.222.39 3.51 3.51 0 0 1-1.352.27z"/><path fill="#FFCC4D" d="m13.4 10.8.356 1.682 1.068-1.365-.428 1.665 1.57-.778-1.127 1.32 1.761-.037-1.603.712 1.603.713-1.761-.037 1.127 1.32-1.57-.778.428 1.666-1.068-1.366L13.4 17.2l-.356-1.683-1.068 1.366.428-1.666-1.57.778 1.126-1.32-1.76.037 1.603-.713-1.603-.712 1.76.037-1.126-1.32 1.57.778-.428-1.665 1.068 1.365.356-1.682z"/></svg>