<svg overflow="visible" xmlns="http://www.w3.org/2000/svg" width="100%" height="100%" viewBox="0 0 18 21" fill="none">   <path stroke-linejoin="miter" fill="var(--token-add2a9eb-6003-4650-a6cf-40d6ea8abeeb, rgb(25, 40, 57))" fill-rule="evenodd" clip-rule="evenodd" d="M7.11369 0.8002C7.45061 0.753791 7.78389 0.906814 7.9683 1.19258L13.0683 9.0958C13.2998 9.45457 13.2386 9.92805 12.9234 10.2161L2.4234 19.8129C2.13196 20.0793 1.69825 20.1174 1.36474 19.9061C1.03123 19.6948 0.88057 19.2863 0.996986 18.909L6.39699 1.40902C6.49727 1.08404 6.77677 0.846609 7.11369 0.8002ZM7.5157 3.71872L3.61796 16.3503L11.1969 9.42329L7.5157 3.71872Z"/>   <path stroke-linejoin="miter" fill="var(--token-add2a9eb-6003-4650-a6cf-40d6ea8abeeb, rgb(25, 40, 57))" fill-rule="evenodd" clip-rule="evenodd" d="M11.4249 0.931886C11.831 0.669862 12.3725 0.786615 12.6346 1.19266L17.7346 9.09589C17.9556 9.43839 17.9108 9.88815 17.6266 10.1804L8.29328 19.7771C7.95636 20.1236 7.4024 20.1313 7.05597 19.7944C6.70954 19.4574 6.70183 18.9035 7.03875 18.557L15.8865 9.45956L11.1641 2.14153C10.9021 1.73549 11.0189 1.19391 11.4249 0.931886Z"/> </svg>