<svg xmlns="http://www.w3.org/2000/svg" width="16" height="14" viewBox="0 0 16 14" fill="none" id="svg1668580072_1433">
<path d="M8.00016 4.40151C8.36835 4.40151 8.66683 4.69999 8.66683 5.06818V7.73484C8.66683 8.10303 8.36835 8.40151 8.00016 8.40151C7.63197 8.40151 7.3335 8.10303 7.3335 7.73484V5.06818C7.3335 4.69999 7.63197 4.40151 8.00016 4.40151Z" fill="#C65C10"/>
<path d="M8.00016 11.0682C8.36835 11.0682 8.66683 10.7697 8.66683 10.4015C8.66683 10.0333 8.36835 9.73484 8.00016 9.73484C7.63197 9.73484 7.3335 10.0333 7.3335 10.4015C7.3335 10.7697 7.63197 11.0682 8.00016 11.0682Z" fill="#C65C10"/>
<path fill-rule="evenodd" clip-rule="evenodd" d="M6.29018 1.29575C6.65274 0.698033 7.30109 0.333008 8.00018 0.333008C8.69926 0.333008 9.34761 0.698033 9.71018 1.29575L9.7121 1.29892L15.3588 10.7256L15.3642 10.7348C15.7195 11.3502 15.7217 12.1079 15.3697 12.7253C15.0178 13.3427 14.3648 13.727 13.6542 13.7348L13.6468 13.7349L2.34618 13.7348C1.6356 13.727 0.982517 13.3427 0.63061 12.7253C0.278703 12.1079 0.280825 11.3502 0.636183 10.7348L0.641598 10.7256L6.29018 1.29575ZM7.43098 1.98593L1.78863 11.4054C1.67238 11.6098 1.67241 11.8605 1.78898 12.0651C1.90578 12.27 2.1221 12.3978 2.35777 12.4015H13.6426C13.8783 12.3978 14.0946 12.27 14.2114 12.0651C14.3279 11.8606 14.328 11.6099 14.2117 11.4054L8.57018 1.98726L8.56937 1.98593C8.44836 1.78748 8.23269 1.66634 8.00018 1.66634C7.76767 1.66634 7.55199 1.78748 7.43098 1.98593Z" fill="#C65C10"/>
</svg>