<svg xmlns="http://www.w3.org/2000/svg" width="12" height="11" viewBox="0 0 12 11" fill="none" id="svg-1962598102_4239">
<path fill-rule="evenodd" clip-rule="evenodd" d="M10.368 0.218635C10.17 0.218834 9.97465 0.263434 9.79621 0.349143C9.61777 0.434851 9.46086 0.559489 9.33696 0.713883C9.21306 0.868272 9.12539 1.04848 9.08039 1.24125C9.03534 1.43401 9.03412 1.63441 9.07678 1.82771C9.11951 2.021 9.20501 2.20227 9.32697 2.35815C9.44898 2.51402 9.6044 2.64053 9.78179 2.72842C9.95917 2.81631 10.154 2.86325 10.352 2.86586C10.5499 2.86847 10.7459 2.82663 10.9255 2.74346L10.0253 1.84326C10.015 1.83295 10.0068 1.8207 10.0012 1.80722C9.99557 1.79374 9.99269 1.77929 9.99269 1.76469C9.99269 1.75009 9.99557 1.73564 10.0012 1.72215C10.0068 1.70868 10.015 1.69643 10.0253 1.68612L11.2016 0.510711C10.9654 0.320773 10.6711 0.217669 10.368 0.218635ZM3.71691 6.31765C3.72035 6.3247 3.72618 6.3303 3.73328 6.33352C3.74038 6.33679 3.74843 6.33746 3.75597 6.33541L5.17641 6.02912L4.57894 5.42366L3.72757 6.27504C3.72085 6.27959 3.71608 6.28641 3.71408 6.29429C3.71214 6.30217 3.71314 6.31049 3.71691 6.31765ZM9.13762 2.69058H9.15715C9.17951 2.69163 9.20176 2.69429 9.22373 2.69857H9.2406C9.32433 2.71538 9.40112 2.75671 9.46132 2.81719C9.52153 2.87773 9.56242 2.9548 9.57884 3.03858C9.58328 3.04923 9.58328 3.05456 9.58328 3.07054V3.07054V3.11848V3.14778C9.58178 3.17014 9.57879 3.19233 9.5744 3.21436C9.57343 3.21823 9.572 3.22211 9.57056 3.22598C9.56804 3.23276 9.56552 3.23954 9.56552 3.24632C9.56147 3.26108 9.55642 3.27562 9.55043 3.28982L9.55043 3.28984C9.54599 3.30049 9.54155 3.31113 9.53623 3.32178C9.5268 3.34048 9.51609 3.35857 9.50427 3.37594L9.48918 3.39547C9.47331 3.41605 9.4555 3.43508 9.43591 3.45228L5.9736 6.49107L5.56878 6.08624L8.83844 2.81575C8.85714 2.7975 8.87734 2.78085 8.89881 2.76604L8.91834 2.75361C8.93476 2.74329 8.95196 2.73441 8.96983 2.72697L8.98847 2.7181C9.01222 2.70922 9.03652 2.70212 9.06127 2.69679H9.06926C9.09179 2.69246 9.1147 2.69035 9.13762 2.69058ZM4.73144 5.26645L5.40259 5.93405L8.68113 2.65551C8.78783 2.5512 8.92688 2.48639 9.0753 2.47174C8.49559 2.02786 7.86349 2.14416 4.73144 5.26645ZM9.58089 3.61826L9.62084 3.5792C9.46193 4.54864 8.16667 5.86343 6.70717 7.24392L6.11858 6.65621L9.58089 3.61826ZM0.98445 10.6965C0.986248 10.7028 0.989943 10.7084 0.99502 10.7125C1.0001 10.7166 1.00633 10.7191 1.01286 10.7196L2.52206 10.8234L1.67602 9.97739L0.991553 10.661C0.987114 10.6656 0.98409 10.6714 0.98283 10.6777C0.981576 10.684 0.982137 10.6905 0.98445 10.6965ZM2.72617 10.713L1.83397 9.82079L4.59226 7.06071L5.92392 6.77396L6.54536 7.3954C5.61941 8.2015 4.35789 9.00848 2.79365 9.79238C2.75576 9.81203 2.7255 9.84371 2.70765 9.88244C2.6898 9.92117 2.68539 9.96478 2.6951 10.0063L2.84514 10.6473C2.84923 10.6622 2.84801 10.678 2.84168 10.6921C2.83536 10.7062 2.82434 10.7177 2.81051 10.7245C2.79727 10.7326 2.78165 10.7359 2.7663 10.7338C2.75094 10.7316 2.73677 10.7243 2.72617 10.713ZM5.73325 6.58542L5.39945 6.25161L4.9378 6.71237C4.93448 6.71636 4.93264 6.72141 4.93264 6.72657C4.93264 6.73179 4.93448 6.73678 4.9378 6.74078C4.93991 6.74549 4.94374 6.74932 4.94846 6.75143C4.95323 6.75354 4.95856 6.75387 4.96355 6.75232L5.73325 6.58542ZM11.3634 0.662979L10.2608 1.76115L11.1255 2.62584C11.1892 2.58112 11.2486 2.53057 11.303 2.47492C11.54 2.23633 11.678 1.91691 11.6892 1.58081C11.7004 1.24471 11.584 0.916815 11.3634 0.662979ZM11.3947 1.37886C11.3901 1.36488 11.3826 1.35205 11.3727 1.34121C11.3628 1.33038 11.3507 1.32179 11.3371 1.31603C11.3236 1.31027 11.3091 1.30747 11.2943 1.30781C11.2796 1.30816 11.2652 1.31165 11.252 1.31804C11.2388 1.32443 11.227 1.33358 11.2176 1.34487C11.2082 1.35617 11.2014 1.36934 11.1975 1.38351C11.1936 1.39768 11.1928 1.41252 11.1951 1.42703C11.1974 1.44154 11.2028 1.45539 11.2109 1.46763C11.2374 1.52103 11.248 1.58095 11.2412 1.64018C11.2344 1.69941 11.2106 1.75542 11.1727 1.80144C11.1603 1.81647 11.1524 1.83474 11.1499 1.8541C11.1474 1.87347 11.1505 1.89314 11.1588 1.91081C11.1671 1.9285 11.1802 1.94346 11.1967 1.95395C11.2131 1.96445 11.2323 1.97006 11.2517 1.97011C11.2668 1.96995 11.2817 1.96654 11.2953 1.9601C11.309 1.95367 11.321 1.94436 11.3307 1.93282C11.3936 1.85643 11.4331 1.76353 11.4444 1.66526C11.4557 1.567 11.4384 1.46756 11.3947 1.37886Z" fill="white"/>
</svg>