<svg overflow="visible" xmlns="http://www.w3.org/2000/svg" width="100%" height="100%" viewBox="0 0 21 14" fill="none">   <path stroke-linejoin="miter" fill="var(--token-add2a9eb-6003-4650-a6cf-40d6ea8abeeb, rgb(25, 40, 57))" fill-rule="evenodd" clip-rule="evenodd" d="M1.4019 0.405567C1.67622 0.25025 2.01288 0.254497 2.28319 0.416686L11.0332 5.66669C11.2844 5.81743 11.4436 6.08393 11.4571 6.37661C11.4706 6.6693 11.3367 6.94933 11.1005 7.1226L2.35045 13.5393C2.08455 13.7343 1.73162 13.7632 1.43749 13.6142C1.14337 13.4651 0.958008 13.1634 0.958008 12.8337V1.16699C0.958008 0.851754 1.12758 0.560885 1.4019 0.405567ZM2.70801 2.71241V11.1069L9.0039 6.48994L2.70801 2.71241Z"/>   <path stroke-linejoin="miter" fill="var(--token-add2a9eb-6003-4650-a6cf-40d6ea8abeeb, rgb(25, 40, 57))" fill-rule="evenodd" clip-rule="evenodd" d="M10.7349 0.405567C11.0092 0.25025 11.3459 0.254497 11.6162 0.416686L20.3662 5.66669C20.6174 5.81743 20.7766 6.08393 20.7901 6.37661C20.8036 6.6693 20.6697 6.94933 20.4335 7.1226L11.6835 13.5393C11.4176 13.7343 11.0646 13.7632 10.7705 13.6142C10.4764 13.4651 10.291 13.1634 10.291 12.8337V1.16699C10.291 0.851754 10.4606 0.560885 10.7349 0.405567ZM12.041 2.71241V11.1069L18.3369 6.48994L12.041 2.71241Z"/> </svg>