<svg xmlns="http://www.w3.org/2000/svg" width="784" height="397" viewBox="0 0 784 397" fill="none" id="svg-94133724_846">
<path d="M218.731 5.86121C216.608 2.2317 212.719 0.000976562 208.514 0.000976562H11.837C5.29958 0.000976562 0 5.30054 0 11.8379V384.995C0 391.532 5.29958 396.832 11.8369 396.832H772.162C778.7 396.832 783.999 391.532 783.999 384.995V53.3066H253.274C249.069 53.3066 245.18 51.0759 243.057 47.4464L218.731 5.86121Z" fill="white" fill-opacity="0.04"/>
<path d="M11.837 0.740786H208.514C212.456 0.740786 216.102 2.83209 218.092 6.23476L242.418 47.8199C244.674 51.6763 248.806 54.0464 253.274 54.0464H783.26V384.995C783.26 391.124 778.291 396.092 772.162 396.092H11.8369C5.70816 396.092 0.739809 391.124 0.739809 384.995V11.8379C0.739809 5.70913 5.70817 0.740786 11.837 0.740786Z" stroke="#79879C" stroke-opacity="0.18" stroke-width="1.47962"/>
</svg>