<svg xmlns="http://www.w3.org/2000/svg" width="26" height="26" viewBox="-1 -1 26 26" fill="none" id="svg1690766130_781">
<path d="M3.17843 0.821529C2.52756 0.170656 1.47228 0.170656 0.821407 0.821529C0.170533 1.4724 0.170533 2.52768 0.821407 3.17855L17.9762 20.3334H6.99992C6.07944 20.3334 5.33325 21.0796 5.33325 22C5.33325 22.9205 6.07944 23.6667 6.99992 23.6667H21.9988C22.0004 23.6667 22.0033 23.6667 22.0049 23.6667C22.2291 23.666 22.4428 23.6211 22.6379 23.5402C22.83 23.4608 23.0103 23.3438 23.1675 23.1894C23.1748 23.1822 23.1821 23.1749 23.1893 23.1676C23.4834 22.868 23.6652 22.4578 23.6666 22.005C23.6666 22.0034 23.6666 22.0017 23.6666 22V7.00004C23.6666 6.07957 22.9204 5.33337 21.9999 5.33337C21.0794 5.33337 20.3333 6.07957 20.3333 7.00004V17.9764L3.17843 0.821529Z" fill="white"/>
</svg>