<svg xmlns="http://www.w3.org/2000/svg" width="21" height="21" viewBox="-2 -2 21 21" fill="none" id="svg669303295_1234">
<path d="M2.08875 2.83796C2.08875 2.42937 2.41997 2.09815 2.82856 2.09815H9.48684C9.89543 2.09815 10.2267 2.42937 10.2267 2.83796V3.57777C10.2267 3.98635 10.5579 4.31758 10.9665 4.31758C11.375 4.31758 11.7063 3.98635 11.7063 3.57777V2.83796C11.7063 1.6122 10.7126 0.61853 9.48684 0.61853H2.82856C1.6028 0.61853 0.609131 1.6122 0.609131 2.83796V9.49624C0.609131 10.722 1.6028 11.7157 2.82856 11.7157H3.56837C3.97695 11.7157 4.30818 11.3844 4.30818 10.9759C4.30818 10.5673 3.97695 10.2361 3.56837 10.2361H2.82856C2.41997 10.2361 2.08875 9.90483 2.08875 9.49624V2.83796Z" fill="#DFE3E9"/>
<path fill-rule="evenodd" clip-rule="evenodd" d="M8.00722 5.7972C6.78147 5.7972 5.7878 6.79087 5.7878 8.01662V14.6749C5.7878 15.9007 6.78147 16.8943 8.00722 16.8943H14.6655C15.8913 16.8943 16.8849 15.9007 16.8849 14.6749V8.01662C16.8849 6.79087 15.8913 5.7972 14.6655 5.7972H8.00722ZM7.26742 8.01662C7.26742 7.60804 7.59864 7.27681 8.00722 7.27681H14.6655C15.0741 7.27681 15.4053 7.60804 15.4053 8.01662V14.6749C15.4053 15.0835 15.0741 15.4147 14.6655 15.4147H8.00722C7.59864 15.4147 7.26742 15.0835 7.26742 14.6749V8.01662Z" fill="#DFE3E9"/>
</svg>