<svg xmlns="http://www.w3.org/2000/svg" width="29" height="30" viewBox="-1 -1 29 30" fill="none" id="svg2021344181_1907">
<path fill-rule="evenodd" clip-rule="evenodd" d="M26.2761 1.05715C26.7968 1.57785 26.7968 2.42207 26.2761 2.94277L23.7906 5.42832C24.74 6.87844 24.8996 8.46316 24.6933 9.8247C24.447 11.4504 23.665 12.8873 22.9428 13.6094L20.9428 15.6094C20.4221 16.1301 19.5779 16.1301 19.0572 15.6094L11.7239 8.2761C11.2032 7.7554 11.2032 6.91118 11.7239 6.39048L13.7239 4.39048C14.446 3.66833 15.8829 2.88633 17.5086 2.64001C18.8701 2.43371 20.4549 2.5933 21.905 3.5427L24.3905 1.05715C24.9112 0.536451 25.7554 0.536451 26.2761 1.05715ZM17.9081 5.27658C16.7838 5.44692 15.8873 5.99826 15.6095 6.2761L14.5523 7.33329L20 12.781L21.0572 11.7238C21.335 11.446 21.8864 10.5495 22.0567 9.42522C22.2165 8.37083 22.027 7.24592 21.0572 6.2761C20.0874 5.30628 18.9625 5.11682 17.9081 5.27658ZM11.6095 11.0572C12.1302 11.5778 12.1302 12.4221 11.6095 12.9428L9.88562 14.6666L12.6667 17.4477L14.3905 15.7238C14.9112 15.2031 15.7554 15.2031 16.2761 15.7238C16.7968 16.2445 16.7968 17.0887 16.2761 17.6094L14.5523 19.3333L14.9428 19.7238C15.4635 20.2445 15.4635 21.0887 14.9428 21.6094L12.9428 23.6094C12.2207 24.3316 10.7838 25.1136 9.15807 25.3599C7.79654 25.5662 6.21182 25.4066 4.7617 24.4572L2.27614 26.9428C1.75544 27.4635 0.911223 27.4635 0.390524 26.9428C-0.130175 26.4221 -0.130175 25.5779 0.390524 25.0571L2.87608 22.5716C1.92667 21.1215 1.76709 19.5368 1.97338 18.1752C2.2197 16.5495 3.0017 15.1126 3.72386 14.3905L5.72386 12.3905C6.24456 11.8698 7.08878 11.8698 7.60948 12.3905L8 12.781L9.72386 11.0572C10.2446 10.5365 11.0888 10.5365 11.6095 11.0572ZM6.66667 15.2189L5.60948 16.2761C5.33163 16.5539 4.7803 17.4504 4.60995 18.5747C4.4502 19.6291 4.63965 20.754 5.60948 21.7238C6.5793 22.6936 7.70421 22.8831 8.75859 22.7233C9.88286 22.553 10.7793 22.0017 11.0572 21.7238L12.1144 20.6666L6.66667 15.2189Z" fill="white"/>
</svg>