<svg xmlns="http://www.w3.org/2000/svg" width="25" height="28" viewBox="0 0 25 28" fill="none" id="svg2004630446_2281">
<path d="M8.13325 15.3333L10.0666 13.4C10.3333 13.1333 10.4613 12.8222 10.4506 12.4666C10.4399 12.1111 10.3119 11.8 10.0666 11.5333C9.79992 11.2666 9.48303 11.1275 9.11592 11.116C8.74881 11.1044 8.43236 11.2324 8.16659 11.5L5.26659 14.4C4.99992 14.6666 4.86659 14.9777 4.86659 15.3333C4.86659 15.6888 4.99992 16 5.26659 16.2666L8.16659 19.1666C8.43325 19.4333 8.75014 19.5613 9.11725 19.5506C9.48436 19.54 9.80081 19.4008 10.0666 19.1333C10.311 18.8666 10.439 18.5555 10.4506 18.2C10.4621 17.8444 10.3341 17.5333 10.0666 17.2666L8.13325 15.3333ZM16.5332 15.3333L14.5999 17.2666C14.3332 17.5333 14.2052 17.8444 14.2159 18.2C14.2266 18.5555 14.3546 18.8666 14.5999 19.1333C14.8666 19.4 15.1835 19.5386 15.5506 19.5493C15.9177 19.56 16.2341 19.4324 16.4999 19.1666L19.3999 16.2666C19.6666 16 19.7999 15.6888 19.7999 15.3333C19.7999 14.9777 19.6666 14.6666 19.3999 14.4L16.4999 11.5C16.2332 11.2333 15.9164 11.1053 15.5492 11.116C15.1821 11.1266 14.8657 11.2657 14.5999 11.5333C14.3555 11.8 14.2279 12.1111 14.2173 12.4666C14.2066 12.8222 14.3341 13.1333 14.5999 13.4L16.5332 15.3333ZM2.99992 27.3333C2.26659 27.3333 1.63859 27.072 1.11592 26.5493C0.593254 26.0266 0.332365 25.3991 0.333254 24.6666V5.99996C0.333254 5.26663 0.594588 4.63863 1.11725 4.11596C1.63992 3.59329 2.26748 3.3324 2.99992 3.33329H8.59992C8.88881 2.53329 9.37236 1.88885 10.0506 1.39996C10.7288 0.91107 11.4897 0.666626 12.3333 0.666626C13.1777 0.666626 13.939 0.91107 14.6173 1.39996C15.2955 1.88885 15.7786 2.53329 16.0666 3.33329H21.6666C22.3999 3.33329 23.0279 3.59463 23.5506 4.11729C24.0732 4.63996 24.3341 5.26751 24.3332 5.99996V24.6666C24.3332 25.4 24.0719 26.028 23.5492 26.5506C23.0266 27.0733 22.399 27.3342 21.6666 27.3333H2.99992ZM2.99992 24.6666H21.6666V5.99996H2.99992V24.6666ZM12.3333 4.99996C12.6221 4.99996 12.8608 4.90529 13.0492 4.71596C13.2377 4.52663 13.3324 4.28796 13.3333 3.99996C13.3333 3.71107 13.2386 3.4724 13.0492 3.28396C12.8599 3.09551 12.6213 3.00085 12.3333 2.99996C12.0444 2.99996 11.8057 3.09463 11.6173 3.28396C11.4288 3.47329 11.3341 3.71196 11.3333 3.99996C11.3333 4.28885 11.4279 4.52751 11.6173 4.71596C11.8066 4.9044 12.0453 4.99907 12.3333 4.99996Z" fill="white"/>
</svg>