<svg xmlns="http://www.w3.org/2000/svg" width="19" height="19" viewBox="0 0 19 19" fill="none" id="svg756749793_624">
<path d="M10.3073 0.950977C8.5657 0.727327 6.79693 1.02515 5.22458 1.8068C3.65227 2.58844 2.34705 3.81879 1.47399 5.34225C0.60094 6.86574 0.199263 8.61387 0.319762 10.3656C0.44026 12.1173 1.07752 13.7941 2.15095 15.1836C3.22438 16.5732 4.68578 17.6132 6.35032 18.1722C8.01484 18.7312 9.80775 18.784 11.5023 18.324C13.1969 17.864 14.717 16.9118 15.8704 15.5879C17.0238 14.2639 17.7586 12.6276 17.9821 10.886C18.2816 8.55084 17.6414 6.19229 16.2021 4.32915C14.7628 2.466 12.6425 1.25085 10.3073 0.950977Z" fill="#FF6C37"/>
</svg>