<svg xmlns="http://www.w3.org/2000/svg" width="125" height="27" viewBox="0 0 125 27" fill="none" id="svg1080638218_5897">
<path d="M8.08476 7.03013L7.04639 10.8678L12.9898 7.00828L9.10269 21.5712L13.0505 21.5745L18.7928 0.0644531" fill="#3395FF"/>
<path d="M1.68776 15.4522L0.0527344 21.5744H8.14411L11.455 9.12002L1.68776 15.4522ZM29.7943 10.0621C29.5965 10.8002 29.2154 11.3424 28.6471 11.6886C28.0802 12.0342 27.2844 12.2076 26.2572 12.2076H22.9938L24.1396 7.91781H27.4031C28.4289 7.91781 29.1337 8.08993 29.5161 8.4408C29.8985 8.79167 29.9908 9.32789 29.7943 10.0693V10.0621ZM33.1731 9.97667C33.5885 8.42756 33.4171 7.23594 32.6576 6.40181C31.8994 5.57429 30.569 5.15723 28.6702 5.15723H21.3871L17.0029 21.5817H20.5413L22.3081 14.9616H24.6288C25.1497 14.9616 25.5597 15.0477 25.859 15.2132C26.159 15.3853 26.335 15.6832 26.3891 16.1135L27.0207 21.5817H30.8116L30.1971 16.4842C30.0719 15.3456 29.553 14.6769 28.6412 14.4783C29.8035 14.1407 30.7773 13.578 31.5618 12.7968C32.3409 12.0214 32.8975 11.0495 33.1731 9.98328V9.97667ZM41.7741 15.7031C41.4774 16.8152 41.0225 17.656 40.4074 18.2452C39.7917 18.8344 39.0559 19.1257 38.1975 19.1257C37.3233 19.1257 36.7306 18.841 36.4175 18.265C36.1036 17.6891 36.0931 16.855 36.3845 15.7626C36.6759 14.6703 37.1407 13.8163 37.7802 13.2007C38.4197 12.585 39.1673 12.2772 40.0257 12.2772C40.8828 12.2772 41.4695 12.5751 41.7662 13.1662C42.0695 13.7601 42.0761 14.6094 41.7794 15.715L41.7741 15.7031ZM43.3248 9.8906L42.8817 11.5522C42.6905 10.9564 42.3194 10.4798 41.7708 10.1223C41.221 9.77144 40.5406 9.5927 39.729 9.5927C38.7335 9.5927 37.7776 9.85088 36.8611 10.3673C35.9447 10.8836 35.1404 11.6118 34.4548 12.5519C33.7691 13.4919 33.2681 14.5578 32.945 15.756C32.6286 16.9609 32.5626 18.0135 32.7538 18.9271C32.9516 19.8472 33.367 20.549 34.0065 21.0389C34.6526 21.5354 35.4767 21.7803 36.4854 21.7803C37.2869 21.7844 38.0794 21.6103 38.806 21.2706C39.5245 20.9452 40.1635 20.4662 40.6784 19.8671L40.2169 21.5989H43.6386L46.7629 9.89656H43.3346L43.3248 9.8906ZM59.0585 9.8906H49.108L48.4124 12.4989H54.2023L46.548 19.1389L45.894 21.5883H56.1656L56.8611 18.98H50.6573L58.4289 12.2407L59.0585 9.8906ZM67.8171 15.6832C67.5092 16.8351 67.0523 17.701 66.4491 18.265C65.8459 18.8344 65.1154 19.119 64.2576 19.119C62.4644 19.119 61.875 17.9738 62.4868 15.6832C62.7901 14.5445 63.2489 13.6886 63.8621 13.1119C64.4752 12.5334 65.2182 12.2447 66.0918 12.2447C66.9488 12.2447 67.5277 12.5314 67.8257 13.1086C68.1237 13.6846 68.121 14.5432 67.8171 15.6819V15.6832ZM69.82 10.3308C69.0322 9.8383 68.0268 9.59204 66.8005 9.59204C65.5591 9.59204 64.4099 9.83698 63.3524 10.3269C62.2994 10.8137 61.3738 11.5404 60.6494 12.4493C59.9044 13.3695 59.3684 14.4485 59.0394 15.6799C58.7164 16.9066 58.6768 17.9837 58.9273 18.9059C59.1779 19.8261 59.7053 20.5344 60.4964 21.0243C61.2942 21.5182 62.3095 21.7638 63.5555 21.7638C64.7818 21.7638 65.9223 21.5162 66.9706 21.0236C68.0189 20.5285 68.9155 19.8254 69.6605 18.8986C70.4054 17.9757 70.9395 16.8993 71.2691 15.668C71.5988 14.4366 71.6383 13.3615 71.3878 12.4374C71.1373 11.5172 70.6164 10.8088 69.8319 10.3156L69.82 10.3308ZM82.0352 13.0166L82.912 9.83235C82.6154 9.68008 82.2264 9.60064 81.7385 9.60064C80.954 9.60064 80.2024 9.79527 79.4772 10.1898C78.8535 10.5248 78.3234 10.9975 77.8751 11.5893L78.33 9.87471L77.3365 9.87869H74.8971L71.7524 21.5764H75.2222L76.8539 15.4614C77.0912 14.5723 77.5185 13.8726 78.1349 13.3761C78.748 12.8776 79.5128 12.628 80.4358 12.628C81.0028 12.628 81.5302 12.7584 82.0312 13.0186L82.0352 13.0166ZM91.6897 15.7395C91.3931 16.8318 90.9447 17.6659 90.3316 18.2419C89.7185 18.8205 88.9801 19.1091 88.123 19.1091C87.2659 19.1091 86.6792 18.8178 86.3693 18.2352C86.0529 17.6494 86.0463 16.8053 86.343 15.6958C86.6396 14.5869 87.0945 13.7362 87.7209 13.147C88.3472 12.5532 89.0856 12.2566 89.9426 12.2566C90.7865 12.2566 91.3535 12.5612 91.6568 13.1768C91.96 13.7925 91.9666 14.6465 91.6752 15.7388L91.6897 15.7395ZM94.1014 10.35C93.4586 9.83367 92.6378 9.57549 91.6423 9.57549C90.77 9.57549 89.9387 9.77409 89.1502 10.1753C88.3623 10.5758 87.7228 11.1219 87.2317 11.8131L87.2435 11.7336L87.8257 9.87339H84.437L83.5733 13.1106L83.5469 13.2232L79.9868 26.5587H83.4612L85.2545 19.8459C85.4325 20.4431 85.7951 20.9118 86.3489 21.2507C86.9027 21.5883 87.5864 21.7558 88.3993 21.7558C89.408 21.7558 90.3705 21.5109 91.2836 21.021C92.2 20.5298 92.9912 19.8228 93.6636 18.9092C94.3361 17.9956 94.8352 16.9364 95.1536 15.7381C95.4767 14.5379 95.5426 13.4674 95.358 12.5307C95.1701 11.5926 94.7541 10.8664 94.1119 10.3527L94.1014 10.35ZM105.626 15.6918C105.33 16.7974 104.875 17.6447 104.262 18.2273C103.648 18.8138 102.91 19.1058 102.053 19.1058C101.176 19.1058 100.583 18.8211 100.273 18.2452C99.9565 17.6692 99.9499 16.8351 100.24 15.7428C100.53 14.6505 100.993 13.7965 101.632 13.1808C102.272 12.5651 103.02 12.258 103.879 12.258C104.736 12.258 105.316 12.5559 105.619 13.145C105.922 13.7362 105.924 14.5856 105.629 15.6938L105.626 15.6918ZM107.176 9.87604L106.732 11.5377C106.541 10.9386 106.172 10.4619 105.624 10.1077C105.071 9.75423 104.391 9.57813 103.581 9.57813C102.585 9.57813 101.624 9.83632 100.706 10.3527C99.7897 10.8691 98.9854 11.5933 98.2997 12.5307C97.614 13.4681 97.113 14.5366 96.7899 15.7348C96.4702 16.9377 96.4076 17.9923 96.5988 18.9098C96.7919 19.8234 97.2079 20.5291 97.8514 21.0217C98.4935 21.5115 99.3216 21.7591 100.33 21.7591C101.141 21.7591 101.916 21.5897 102.651 21.2494C103.368 20.9225 104.005 20.4429 104.519 19.8439L104.057 21.5771H107.479L110.603 9.87935H107.181L107.176 9.87604ZM124.968 9.88001L124.97 9.8767H122.867C122.799 9.8767 122.74 9.88001 122.679 9.88134H121.588L121.027 10.6625L120.889 10.8479L120.829 10.9406L116.396 17.1423L115.479 9.88001H111.848L113.687 20.9157L109.626 26.5627H113.246L114.228 25.1639C114.256 25.1228 114.281 25.0884 114.314 25.0447L115.461 23.4095L115.494 23.3632L120.632 16.048L124.963 9.89127L124.97 9.88729H124.968V9.88001Z" fill="#192839"/>
</svg>