<svg xmlns="http://www.w3.org/2000/svg" width="19" height="20" viewBox="-2 -2 19 20" fill="none" id="svg1784936997_992">
<path d="M9.82529 0.358276C9.4167 0.358276 9.08548 0.6895 9.08548 1.09809C9.08548 1.50667 9.4167 1.8379 9.82529 1.8379H12.4781L8.56235 5.75363C8.27344 6.04254 8.27344 6.51096 8.56235 6.79988C8.85127 7.08879 9.31969 7.08879 9.6086 6.79988L13.5243 2.88414V5.53694C13.5243 5.94553 13.8556 6.27675 14.2641 6.27675C14.6727 6.27675 15.004 5.94553 15.004 5.53694V1.09809C15.004 0.6895 14.6727 0.358276 14.2641 0.358276H9.82529Z" fill="#DFE3E9"/>
<path d="M1.68738 9.9758C1.68738 9.56721 1.35616 9.23599 0.947573 9.23599C0.538988 9.23599 0.207764 9.56721 0.207764 9.9758V14.4147C0.207764 14.8232 0.538988 15.1545 0.947573 15.1545H5.38643C5.79501 15.1545 6.12624 14.8232 6.12624 14.4147C6.12624 14.0061 5.79501 13.6748 5.38643 13.6748H2.73363L6.64936 9.75911C6.93828 9.4702 6.93828 9.00178 6.64936 8.71286C6.36045 8.42395 5.89203 8.42395 5.60311 8.71286L1.68738 12.6286V9.9758Z" fill="#DFE3E9"/>
</svg>