<svg overflow="visible" xmlns="http://www.w3.org/2000/svg" width="100%" height="100%" viewBox="0 0 16 16" fill="none">   <path stroke-linejoin="miter" fill="var(--token-add2a9eb-6003-4650-a6cf-40d6ea8abeeb, rgb(25, 40, 57))" fill-rule="evenodd" clip-rule="evenodd" d="M11.4595 5.38397C11.5393 5.14442 11.477 4.8803 11.2984 4.70175C11.1199 4.5232 10.8558 4.46085 10.6162 4.5407L6.3762 5.95403C6.17713 6.02039 6.02092 6.1766 5.95456 6.37567L4.54123 10.6157C4.46138 10.8552 4.52372 11.1193 4.70228 11.2979C4.88083 11.4764 5.14495 11.5388 5.3845 11.4589L9.6245 10.0456C9.82357 9.97925 9.97978 9.82304 10.0461 9.62397L11.4595 5.38397ZM6.22778 9.77239L7.11406 7.11353L9.77292 6.22725L8.88664 8.88611L6.22778 9.77239Z"/>   <path stroke-linejoin="miter" fill="var(--token-add2a9eb-6003-4650-a6cf-40d6ea8abeeb, rgb(25, 40, 57))" fill-rule="evenodd" clip-rule="evenodd" d="M8.00033 0.666504C3.95024 0.666504 0.666992 3.94975 0.666992 7.99984C0.666992 12.0499 3.95024 15.3332 8.00033 15.3332C12.0504 15.3332 15.3337 12.0499 15.3337 7.99984C15.3337 3.94975 12.0504 0.666504 8.00033 0.666504ZM2.00033 7.99984C2.00033 4.68613 4.68662 1.99984 8.00033 1.99984C11.314 1.99984 14.0003 4.68613 14.0003 7.99984C14.0003 11.3135 11.314 13.9998 8.00033 13.9998C4.68662 13.9998 2.00033 11.3135 2.00033 7.99984Z"/> </svg>