<svg overflow="visible" xmlns="http://www.w3.org/2000/svg" width="100%" height="100%" viewBox="0 0 20 21" fill="none">   <path stroke-linejoin="miter" fill="var(--token-add2a9eb-6003-4650-a6cf-40d6ea8abeeb, rgb(25, 40, 57))" fill-rule="evenodd" clip-rule="evenodd" d="M8.99774 0.861281C10.8411 0.633325 12.7102 0.970865 14.3574 1.82917C16.0046 2.68748 17.3521 4.02604 18.2214 5.66747C19.0906 7.3089 19.4406 9.17572 19.225 11.0206C19.1689 11.5005 18.7343 11.8442 18.2543 11.788C17.7743 11.7319 17.4307 11.2973 17.4868 10.8174C17.595 9.89195 17.5272 8.9597 17.2925 8.06831H2.95246C2.94205 8.10782 2.93197 8.14744 2.92221 8.18717C2.62574 9.39368 2.63815 10.6511 2.95245 11.8446H11.0427C11.526 11.8446 11.9177 12.2364 11.9177 12.7196C11.9177 13.2029 11.526 13.5946 11.0427 13.5946H3.66196C4.21129 14.5701 4.97698 15.413 5.90575 16.0551C7.14179 16.9097 8.60834 17.3686 10.1111 17.3709C10.5943 17.3717 10.9855 17.764 10.9847 18.2473C10.984 18.7305 10.5916 19.1217 10.1084 19.1209C8.25096 19.1181 6.43828 18.5509 4.9105 17.4946C3.38273 16.4382 2.21199 14.9426 1.55342 13.2059C0.894846 11.4692 0.779534 9.57332 1.22276 7.76958C1.66599 5.96583 2.64683 4.33935 4.03532 3.10564C5.4238 1.87193 7.15438 1.08924 8.99774 0.861281ZM3.66198 6.31831H16.583C15.8784 5.06703 14.8247 4.04598 13.5487 3.38112C12.2161 2.68671 10.7039 2.41362 9.21252 2.59805C7.72116 2.78248 6.32104 3.41571 5.19769 4.41384C4.58037 4.96234 4.06265 5.60681 3.66198 6.31831Z"/>   <path stroke-linejoin="miter" fill="var(--token-add2a9eb-6003-4650-a6cf-40d6ea8abeeb, rgb(25, 40, 57))" fill-rule="evenodd" clip-rule="evenodd" d="M10.1209 0.923107C9.71131 0.669504 9.17337 0.794805 8.9181 1.20387C7.27973 3.82931 6.41113 6.86188 6.41113 9.95658C6.41113 13.0513 7.27973 16.0839 8.9181 18.7093C9.17394 19.1193 9.71368 19.2442 10.1237 18.9884C10.5336 18.7325 10.6586 18.1928 10.4027 17.7828C8.93779 15.4353 8.16113 12.7237 8.16113 9.95658C8.16113 7.37254 8.83841 4.83695 10.121 2.60101C11.5942 5.16787 12.2647 8.12236 12.0384 11.0817C12.0015 11.5636 12.3623 11.984 12.8441 12.0209C13.3259 12.0577 13.7464 11.697 13.7833 11.2151C14.052 7.7011 13.1902 4.19318 11.3237 1.20371C11.0684 0.794751 10.5305 0.66955 10.1209 0.923107ZM13.3907 14.5618C13.3907 14.0786 13.7824 13.6868 14.2657 13.6868H18.4104C18.8937 13.6868 19.2854 14.0786 19.2854 14.5618V18.7066C19.2854 19.1898 18.8937 19.5816 18.4104 19.5816C17.9272 19.5816 17.5354 19.1898 17.5354 18.7066V16.6743L14.4239 19.7858C14.0822 20.1275 13.5281 20.1275 13.1864 19.7858C12.8447 19.4441 12.8447 18.8901 13.1864 18.5484L16.298 15.4368H14.2657C13.7824 15.4368 13.3907 15.0451 13.3907 14.5618Z"/> </svg>