<svg overflow="visible" xmlns="http://www.w3.org/2000/svg" width="100%" height="100%" viewBox="0 0 28 28" fill="none">   <path stroke-linejoin="miter" fill="var(--token-add2a9eb-6003-4650-a6cf-40d6ea8abeeb, rgb(25, 40, 57))" d="M5.46006 3.5C5.2496 3.5 5.04775 3.58194 4.89893 3.72781C4.75011 3.87367 4.6665 4.0715 4.6665 4.27778C4.6665 4.48406 4.75011 4.68189 4.89893 4.82775C5.04775 4.97361 5.2496 5.05556 5.46006 5.05556H5.85049C6.02281 5.05585 6.19034 5.1111 6.32778 5.21298C6.46522 5.31485 6.5651 5.4578 6.61231 5.62022L9.12948 14.2536C9.27185 14.7408 9.57219 15.1693 9.98509 15.4744C10.398 15.7794 10.901 15.9444 11.4181 15.9444H18.6696C19.1455 15.9445 19.6105 15.8048 20.0046 15.5433C20.3987 15.2819 20.7038 14.9106 20.8805 14.4776L23.2199 8.74378C23.3161 8.50784 23.3518 8.25241 23.324 7.9998C23.2962 7.7472 23.2057 7.50512 23.0604 7.29471C22.9151 7.08431 22.7194 6.912 22.4905 6.79283C22.2615 6.67366 22.0063 6.61127 21.7471 6.61111H8.55177L8.13753 5.19244C7.99552 4.7052 7.69554 4.27651 7.28293 3.97117C6.87032 3.66583 6.36751 3.50044 5.85049 3.5H5.46006ZM10.6563 13.8242L9.00568 8.16667H21.7455L19.4061 13.9004C19.3471 14.0446 19.2455 14.1682 19.1142 14.2553C18.983 14.3423 18.8281 14.3889 18.6696 14.3889H11.4181C11.2458 14.3886 11.0782 14.3333 10.9408 14.2315C10.8034 14.1296 10.7035 13.9866 10.6563 13.8242ZM11.8085 22.1667C12.1212 22.1667 12.4307 22.1063 12.7196 21.9891C13.0084 21.8718 13.2709 21.6999 13.4919 21.4832C13.713 21.2666 13.8883 21.0094 14.008 20.7263C14.1276 20.4432 14.1892 20.1398 14.1892 19.8333C14.1892 19.5269 14.1276 19.2235 14.008 18.9404C13.8883 18.6573 13.713 18.4001 13.4919 18.1834C13.2709 17.9667 13.0084 17.7949 12.7196 17.6776C12.4307 17.5604 12.1212 17.5 11.8085 17.5C11.1771 17.5 10.5716 17.7458 10.1251 18.1834C9.67868 18.621 9.42786 19.2145 9.42786 19.8333C9.42786 20.4522 9.67868 21.0457 10.1251 21.4832C10.5716 21.9208 11.1771 22.1667 11.8085 22.1667ZM11.8085 20.6111C11.5981 20.6111 11.3962 20.5292 11.2474 20.3833C11.0986 20.2374 11.015 20.0396 11.015 19.8333C11.015 19.6271 11.0986 19.4292 11.2474 19.2834C11.3962 19.1375 11.5981 19.0556 11.8085 19.0556C12.019 19.0556 12.2208 19.1375 12.3697 19.2834C12.5185 19.4292 12.6021 19.6271 12.6021 19.8333C12.6021 20.0396 12.5185 20.2374 12.3697 20.3833C12.2208 20.5292 12.019 20.6111 11.8085 20.6111ZM18.157 22.1667C18.4696 22.1667 18.7792 22.1063 19.068 21.9891C19.3569 21.8718 19.6193 21.6999 19.8404 21.4832C20.0615 21.2666 20.2368 21.0094 20.3565 20.7263C20.4761 20.4432 20.5377 20.1398 20.5377 19.8333C20.5377 19.5269 20.4761 19.2235 20.3565 18.9404C20.2368 18.6573 20.0615 18.4001 19.8404 18.1834C19.6193 17.9667 19.3569 17.7949 19.068 17.6776C18.7792 17.5604 18.4696 17.5 18.157 17.5C17.5256 17.5 16.9201 17.7458 16.4736 18.1834C16.0271 18.621 15.7763 19.2145 15.7763 19.8333C15.7763 20.4522 16.0271 21.0457 16.4736 21.4832C16.9201 21.9208 17.5256 22.1667 18.157 22.1667ZM18.157 20.6111C17.9465 20.6111 17.7447 20.5292 17.5959 20.3833C17.447 20.2374 17.3634 20.0396 17.3634 19.8333C17.3634 19.6271 17.447 19.4292 17.5959 19.2834C17.7447 19.1375 17.9465 19.0556 18.157 19.0556C18.3675 19.0556 18.5693 19.1375 18.7181 19.2834C18.867 19.4292 18.9506 19.6271 18.9506 19.8333C18.9506 20.0396 18.867 20.2374 18.7181 20.3833C18.5693 20.5292 18.3675 20.6111 18.157 20.6111Z"/>   <path stroke-linejoin="miter" fill="var(--token-add2a9eb-6003-4650-a6cf-40d6ea8abeeb, rgb(25, 40, 57))" fill-rule="evenodd" clip-rule="evenodd" d="M16.0278 6.87298C16.4199 7.15535 16.509 7.70217 16.2266 8.09434L15.1247 9.62474H16.9165C17.2479 9.62474 17.5509 9.81199 17.6991 10.1084C17.8473 10.4049 17.8154 10.7596 17.6165 11.0247L15.8665 13.3581C15.5766 13.7447 15.0281 13.823 14.6415 13.5331C14.2549 13.2431 14.1766 12.6947 14.4665 12.3081L15.1665 11.3747H13.4165C13.0881 11.3747 12.7874 11.1909 12.6377 10.8987C12.488 10.6064 12.5146 10.2549 12.7064 9.98847L14.8064 7.07181C15.0888 6.67963 15.6356 6.59062 16.0278 6.87298Z"/> </svg>