<svg xmlns="http://www.w3.org/2000/svg" xmlns:xlink="http://www.w3.org/1999/xlink" viewBox="0 0 25 23"><path d="M 2.835 13.147 C 2.048 13.639 1.404 14.329 0.966 15.147 C 0.527 15.965 0.31 16.883 0.335 17.811 C 0.36 18.738 0.627 19.643 1.109 20.436 C 1.591 21.229 2.272 21.883 3.084 22.332 C 3.895 22.782 4.811 23.011 5.739 22.999 C 6.666 22.986 7.575 22.732 8.374 22.261 C 9.174 21.79 9.837 21.118 10.297 20.312 C 10.757 19.507 11 18.595 11 17.667 L 19 17.667 M 16.421 22.336 C 17.134 22.729 17.927 22.954 18.739 22.994 C 19.552 23.033 20.363 22.886 21.11 22.564 C 21.857 22.242 22.521 21.753 23.05 21.135 C 23.579 20.517 23.96 19.786 24.163 18.998 C 24.366 18.21 24.386 17.386 24.222 16.589 C 24.057 15.792 23.713 15.044 23.215 14.4 C 22.716 13.757 22.078 13.237 21.347 12.878 C 20.616 12.52 19.814 12.334 19 12.333 C 18.059 12.333 17.101 12.572 16.333 13 L 12.333 5.667 M 17.667 5.667 C 17.667 4.252 17.105 2.896 16.104 1.895 C 15.104 0.895 13.748 0.333 12.333 0.333 C 10.919 0.333 9.562 0.895 8.562 1.895 C 7.562 2.896 7 4.252 7 5.667 C 7 7.675 8.027 9.424 9.667 10.333 L 5.667 17.667" fill="transparent" stroke-width="2.5" stroke="rgb(255,255,255)" stroke-linecap="round" stroke-linejoin="round"></path></svg>