<svg overflow="visible" xmlns="http://www.w3.org/2000/svg" width="100%" height="100%" viewBox="0 0 28 28" fill="none">   <path stroke-linejoin="miter" fill="var(--token-add2a9eb-6003-4650-a6cf-40d6ea8abeeb, rgb(25, 40, 57))" fill-rule="evenodd" clip-rule="evenodd" d="M19.8335 4.95801C20.3167 4.95801 20.7085 5.34976 20.7085 5.83301C20.7085 8.52162 20.3738 10.3618 19.8212 11.6921C19.2563 13.0522 18.487 13.8222 17.7457 14.3987C17.5531 14.5485 17.3159 14.7183 17.1075 14.8674C16.9774 14.9605 16.8585 15.0456 16.7688 15.1127C16.4846 15.3254 16.2618 15.5176 16.081 15.7387C15.7496 16.1437 15.4585 16.7678 15.4585 18.083V22.7497C15.4585 23.2329 15.0667 23.6247 14.5835 23.6247C14.1002 23.6247 13.7085 23.2329 13.7085 22.7497V18.083C13.7085 16.4815 14.0736 15.4285 14.7266 14.6305C15.038 14.2499 15.3895 13.9591 15.7205 13.7115C15.8894 13.5851 16.0278 13.4869 16.1593 13.3936C16.325 13.2761 16.4798 13.1662 16.6713 13.0173C17.2425 12.573 17.7857 12.0305 18.2051 11.0208C18.6369 9.98134 18.9585 8.3944 18.9585 5.83301C18.9585 5.34976 19.3502 4.95801 19.8335 4.95801Z"/>   <path stroke-linejoin="miter" fill="var(--token-add2a9eb-6003-4650-a6cf-40d6ea8abeeb, rgb(25, 40, 57))" fill-rule="evenodd" clip-rule="evenodd" d="M9.3335 4.95801C8.85025 4.95801 8.4585 5.34976 8.4585 5.83301C8.4585 7.49483 8.58642 8.82942 8.81287 9.91823C8.91127 10.3914 9.37458 10.6951 9.84771 10.5967C10.3208 10.4983 10.6246 10.035 10.5262 9.5619C10.3303 8.61982 10.2085 7.40959 10.2085 5.83301C10.2085 5.34976 9.81675 4.95801 9.3335 4.95801ZM10.1675 11.9558C9.83277 12.2783 9.80868 12.8063 10.1126 13.158C10.4494 13.5477 10.7995 13.8515 11.1313 14.1083C11.5012 14.3946 12.0309 14.3393 12.3337 13.9828C12.6366 13.6263 12.6054 13.0946 12.263 12.7759L11.3708 11.9454C11.0306 11.6287 10.5021 11.6332 10.1675 11.9558ZM13.5381 14.7723C13.1277 15.0275 13.0019 15.5671 13.2571 15.9775C13.504 16.3745 13.7085 16.9833 13.7085 18.083V22.7497C13.7085 23.2329 14.1002 23.6247 14.5835 23.6247C15.0667 23.6247 15.4585 23.2329 15.4585 22.7497V18.083C15.4585 16.7641 15.2117 15.8067 14.7432 15.0533C14.488 14.6429 13.9485 14.5172 13.5381 14.7723Z"/>   <path stroke-linejoin="miter" fill="var(--token-add2a9eb-6003-4650-a6cf-40d6ea8abeeb, rgb(25, 40, 57))" fill-rule="evenodd" clip-rule="evenodd" d="M19.2148 4.04827C19.5565 3.70656 20.1105 3.70656 20.4522 4.04827L23.9522 7.54827C24.2939 7.88998 24.2939 8.444 23.9522 8.78571C23.6105 9.12742 23.0565 9.12742 22.7148 8.78571L19.8335 5.90443L16.9522 8.78571C16.6105 9.12742 16.0565 9.12742 15.7148 8.78571C15.3731 8.444 15.3731 7.88998 15.7148 7.54827L19.2148 4.04827Z"/>   <path stroke-linejoin="miter" fill="var(--token-add2a9eb-6003-4650-a6cf-40d6ea8abeeb, rgb(25, 40, 57))" fill-rule="evenodd" clip-rule="evenodd" d="M8.71478 4.04827C9.05649 3.70656 9.61051 3.70656 9.95221 4.04827L13.4522 7.54827C13.7939 7.88998 13.7939 8.444 13.4522 8.78571C13.1105 9.12742 12.5565 9.12742 12.2148 8.78571L9.3335 5.90443L6.45221 8.78571C6.11051 9.12742 5.55649 9.12742 5.21478 8.78571C4.87307 8.444 4.87307 7.88998 5.21478 7.54827L8.71478 4.04827Z"/> </svg>